<?xml version="1.0" encoding="UTF-8" standalone="no" ?>
<!DOCTYPE svg PUBLIC "-//W3C//DTD SVG 1.1//EN" "http://www.w3.org/Graphics/SVG/1.1/DTD/svg11.dtd">
<svg xmlns="http://www.w3.org/2000/svg" xmlns:xlink="http://www.w3.org/1999/xlink" version="1.1" width="409" height="409" viewBox="59 29 409 409" xml:space="preserve">
<desc>Created with Fabric.js 4.6.0</desc>
<defs>
</defs>
<g transform="matrix(1 0 0 1 263.75 233.98)" id="NTmPvMaeUldixtQb14r10"  >
<path style="stroke: rgb(0,0,0); stroke-width: 0; stroke-dasharray: none; stroke-linecap: butt; stroke-dashoffset: 0; stroke-linejoin: miter; stroke-miterlimit: 4; fill: rgb(245,158,11); fill-opacity: 0.98; fill-rule: nonzero; opacity: 1;" vector-effect="non-scaling-stroke"  transform=" translate(0, 0)" d="M -198.49116 -114.27849 C -198.49116 -160.78786 -160.78787 -198.49116 -114.27849 -198.49116 L 114.27850000000001 -198.49116 L 114.27850000000001 -198.49116 C 160.78787 -198.49116 198.49117 -160.78787 198.49117 -114.27849 L 198.49117 114.27850000000001 L 198.49117 114.27850000000001 C 198.49117 160.78787 160.78788 198.49117 114.27850000000001 198.49117 L -114.27849 198.49117 L -114.27849 198.49117 C -160.78786 198.49117 -198.49116 160.78788 -198.49116 114.27850000000001 z" stroke-linecap="round" />
</g>
<g transform="matrix(0.65 0 0 0.65 305.66 399.23)" id="NAObGnKjmTIfM5fVb9ZSf"  >
<path style="stroke: none; stroke-width: 1; stroke-dasharray: none; stroke-linecap: butt; stroke-dashoffset: 0; stroke-linejoin: miter; stroke-miterlimit: 4; fill: rgb(255,182,182); fill-rule: nonzero; opacity: 1;" vector-effect="non-scaling-stroke"  transform=" translate(-715.2, -692.63)" d="M 725.531 715.905 L 713.29 716.579 L 704.8639999999999 669.683 L 722.9309999999999 668.689 z" stroke-linecap="round" />
</g>
<g transform="matrix(0.79 0 0 0.79 301.19 421.49)" id="NmEChuvHDpelpPsAGl9Ih"  >
<path style="stroke: none; stroke-width: 1; stroke-dasharray: none; stroke-linecap: butt; stroke-dashoffset: 0; stroke-linejoin: miter; stroke-miterlimit: 4; fill: rgb(47,46,65); fill-rule: nonzero; opacity: 1;" vector-effect="non-scaling-stroke"  transform=" translate(-856.71, -805.49)" d="M 876.46882 812.33929 L 836.99782 814.51283 L 836.9703000000001 814.01359 C 836.5033551433673 805.5289646586614 843.0024291894595 798.2720346567055 851.487 797.8041 L 851.4879999999999 797.80404 L 875.59552 796.4766 Z" stroke-linecap="round" />
</g>
<g transform="matrix(0.65 0 0 0.65 128.57 258.79)" id="DLnbFn6xvCoYWGJoafDlW"  >
<path style="stroke: none; stroke-width: 1; stroke-dasharray: none; stroke-linecap: butt; stroke-dashoffset: 0; stroke-linejoin: miter; stroke-miterlimit: 4; fill: rgb(255,182,182); fill-rule: nonzero; opacity: 1;" vector-effect="non-scaling-stroke"  transform=" translate(-491.54, -515.27)" d="M 468.885 527.295 L 467.301 515.1379999999999 L 513.439 503.2419999999999 L 515.7769999999999 521.1839999999999 z" stroke-linecap="round" />
</g>
<g transform="matrix(0.79 0 0 0.79 105.84 256.39)" id="MIH81qtM682l2uHP67eSQ"  >
<path style="stroke: none; stroke-width: 1; stroke-dasharray: none; stroke-linecap: butt; stroke-dashoffset: 0; stroke-linejoin: miter; stroke-miterlimit: 4; fill: rgb(47,46,65); fill-rule: nonzero; opacity: 1;" vector-effect="non-scaling-stroke"  transform=" translate(-609.99, -596.97)" d="M 604.66766 616.67182 L 599.5593399999999 577.4725000000001 L 600.0551499999999 577.4078700000001 C 608.4813645491834 576.3100816826518 616.202315356583 582.2503518348627 617.3011499999999 590.6764300000001 L 617.3012799999999 590.6774300000001 L 620.4211799999999 614.61905 Z" stroke-linecap="round" />
</g>
<g transform="matrix(0.79 0 0 0.79 253.34 199.43)" id="ZNzw0Oco2V0Q1d9JEtX18"  >
<path style="stroke: none; stroke-width: 1; stroke-dasharray: none; stroke-linecap: butt; stroke-dashoffset: 0; stroke-linejoin: miter; stroke-miterlimit: 4; fill: rgb(255,182,182); fill-rule: nonzero; opacity: 1;" vector-effect="non-scaling-stroke"  transform=" translate(-796.27, -525.04)" d="M 770.80054 535.20236 C 771.3350989540006 535.3453730121824 771.8575482690383 535.530316237829 772.36303 535.75547 L 814.3170299999999 509.31025999999997 L 813.86849 497.27059999999994 L 831.95 494.21884 L 834.81536 515.45552 C 835.290848680482 518.979625088339 833.3830489933171 522.3945806206652 830.1328100000001 523.83727 L 778.56322 546.7276 C 777.9949013541294 551.0549900152636 774.8081730508363 554.5792186723558 770.5596356518467 555.5788287947702 C 766.3110982528572 556.5784389171845 761.8872912445627 554.8448425224477 759.4490830219761 551.2248382281468 C 757.0108747993895 547.6048339338458 757.067044658153 542.8538056395241 759.5901556706775 539.2924574052281 C 762.1132666832021 535.7311091709321 766.5768229448773 534.102585174996 770.80054 535.20236 Z" stroke-linecap="round" />
</g>
<g transform="matrix(0.79 0 0 0.79 276.94 169.99)" id="lEEVpnYIhj9LnD5ovPrE4"  >
<path style="stroke: none; stroke-width: 1; stroke-dasharray: none; stroke-linecap: butt; stroke-dashoffset: 0; stroke-linejoin: miter; stroke-miterlimit: 4; fill: rgb(255,255,255); fill-rule: nonzero; opacity: 1;" vector-effect="non-scaling-stroke"  transform=" translate(-826.08, -487.85)" d="M 812.40094 507.633 C 811.3887451812396 506.8036707421429 810.7881739312506 505.5744438962781 810.75604 504.26628 L 810.19728 481.68774 C 809.0185305227205 474.90185999238514 813.5522255805876 468.44143017057905 820.3345401204649 467.24233580811114 C 827.1168546603421 466.0432414456433 833.5908515363152 470.5575419241339 834.8102799999999 477.33623 L 841.9193399999999 498.85081 C 842.3298248723831 500.093289172529 842.1791565953015 501.4529082920961 841.5065973651946 502.57536827206053 C 840.8340381350877 503.697828252025 839.7062062305653 504.47194728366844 838.417 504.696 L 816.025 508.58720000000005 C 814.7356722955653 508.81189712330047 813.4124398542092 508.4634954976259 812.40094 507.633 Z" stroke-linecap="round" />
</g>
<g transform="matrix(0.65 0 0 0.65 293.72 112.14)" id="CobGn55UG79RyXqMFlefb"  >
<path style="stroke: none; stroke-width: 1; stroke-dasharray: none; stroke-linecap: butt; stroke-dashoffset: 0; stroke-linejoin: miter; stroke-miterlimit: 4; fill: rgb(47,46,65); fill-rule: nonzero; opacity: 1;" vector-effect="non-scaling-stroke"  transform=" translate(-30.45, -30.45)" d="M 0 30.44946 C 0 13.632689999999997 13.63269 0 30.44946 0 C 47.26623 0 60.89892 13.63269 60.89892 30.44946 C 60.89892 47.26623 47.26622999999999 60.89892 30.44946 60.89892 C 13.632689999999997 60.89892 0 47.26622999999999 0 30.44946 z" stroke-linecap="round" />
</g>
<g transform="matrix(0.65 0 0 0.65 302.16 86.76)" id="oUs-xPTQDB4uTxu1fgKFu"  >
<path style="stroke: none; stroke-width: 1; stroke-dasharray: none; stroke-linecap: butt; stroke-dashoffset: 0; stroke-linejoin: miter; stroke-miterlimit: 4; fill: rgb(47,46,65); fill-rule: nonzero; opacity: 1;" vector-effect="non-scaling-stroke"  transform=" translate(-12.6, -12.6)" d="M 0 12.59979 C 0 5.641120000000001 5.64112 0 12.59979 0 C 19.55846 0 25.19958 5.64112 25.19958 12.59979 C 25.19958 19.55846 19.55846 25.19958 12.59979 25.19958 C 5.641120000000001 25.19958 0 19.55846 0 12.59979 z" stroke-linecap="round" />
</g>
<g transform="matrix(0.79 0 0 0.79 312.03 81.36)" id="EETf_FFANHp22xHqDdLXR"  >
<path style="stroke: none; stroke-width: 1; stroke-dasharray: none; stroke-linecap: butt; stroke-dashoffset: 0; stroke-linejoin: miter; stroke-miterlimit: 4; fill: rgb(47,46,65); fill-rule: nonzero; opacity: 1;" vector-effect="non-scaling-stroke"  transform=" translate(-870.4, -375.91)" d="M 874.73389 375.91052 C 874.7335353193246 369.46002943950356 869.8619396540693 364.05137217079334 863.4466 363.37888000000004 C 863.8826352074116 363.3335888897608 864.3207189119975 363.3108519282702 864.7591 363.31076 C 871.717766345223 363.31076 877.35888 368.951873654777 877.35888 375.91054 C 877.35888 382.86920634522306 871.717766345223 388.51032000000004 864.7591 388.51032000000004 C 864.3207198229853 388.51019311158285 863.8826379204992 388.48745624362294 863.4466 388.4422 C 869.8619414226332 387.76967982991636 874.7335281340869 382.36101523813295 874.73389 375.91052 Z" stroke-linecap="round" />
</g>
<g transform="matrix(0.65 0 0 0.65 293.72 123.1)" id="mf5W46MA5e69td365JFRu"  >
<path style="stroke: none; stroke-width: 1; stroke-dasharray: none; stroke-linecap: butt; stroke-dashoffset: 0; stroke-linejoin: miter; stroke-miterlimit: 4; fill: rgb(255,184,184); fill-rule: nonzero; opacity: 1;" vector-effect="non-scaling-stroke"  transform=" translate(-19.25, -19.25)" d="M 0 19.25398 C 0 8.620299999999999 8.6203 0 19.25398 0 C 29.887659999999997 0 38.50796 8.6203 38.50796 19.25398 C 38.50796 29.887659999999997 29.887659999999997 38.50796 19.25398 38.50796 C 8.620299999999999 38.50796 0 29.887659999999997 0 19.25398 z" stroke-linecap="round" />
</g>
<g transform="matrix(0.79 0 0 0.79 222.9 315.47)" id="Y-pb6aLOZ6E72hJa2_Oqf"  >
<path style="stroke: none; stroke-width: 1; stroke-dasharray: none; stroke-linecap: butt; stroke-dashoffset: 0; stroke-linejoin: miter; stroke-miterlimit: 4; fill: rgb(255,255,255); fill-rule: nonzero; opacity: 1;" vector-effect="non-scaling-stroke"  transform=" translate(-757.84, -671.59)" d="M 879.31891 561.49783 C 879.31891 561.49783 878.4020399999999 584.41922 874.73462 596.3384100000001 C 871.0672 608.2576000000001 877.48523 776.9592 874.27625 781.0850500000001 C 871.06727 785.2109000000003 855.93909 783.8356000000001 855.93909 783.8356000000001 L 841.9055099999999 695.9427400000001 C 841.9055099999999 695.9427400000001 839.43567 602.75638 805.5119599999999 600.46427 C 771.5882499999999 598.1721600000001 639.1024799999999 611.00815 639.1024799999999 611.00815 L 636.3519299999999 592.21262 L 707.40833 576.62607 C 707.40833 576.62607 772.50513 554.1630700000001 808.26257 560.12265 C 844.02001 566.08223 879.31891 561.49783 879.31891 561.49783 Z" stroke-linecap="round" />
</g>
<g transform="matrix(0.79 0 0 0.79 297.31 199.68)" id="J5CO9RYf8BZKPTF3OMn7H"  >
<path style="stroke: none; stroke-width: 1; stroke-dasharray: none; stroke-linecap: butt; stroke-dashoffset: 0; stroke-linejoin: miter; stroke-miterlimit: 4; fill: rgb(47,46,65); fill-rule: nonzero; opacity: 1;" vector-effect="non-scaling-stroke"  transform=" translate(-851.81, -525.35)" d="M 875.19306 450.5582 C 878.8605399999999 447.80765 888.02906 451.47507 888.02906 451.47507 L 898.11451 481.27292 C 898.11451 481.27292 893.07179 506.94492 888.48751 521.15619 C 883.9032300000001 535.36746 875.0717900000001 598.19213 876.90551 600.9427400000001 C 878.73923 603.6933500000001 847.2289400000001 581.21036 828.43335 574.3338900000001 C 809.63776 567.4574200000002 805.5119 559.6641600000002 805.5119 559.6641600000002 C 805.5119 559.6641600000002 826.14118 530.3247400000001 819.26477 516.5719000000001 C 812.38836 502.81906000000015 817.88947 487.2324800000001 817.88947 487.2324800000001 L 815.13892 471.64591000000013 L 830.72547 462.93576000000013 C 830.72547 462.93576000000013 871.52558 453.30875 875.19306 450.5582 Z" stroke-linecap="round" />
</g>
<g transform="matrix(0.65 0 0 0.65 290.92 107.02)" id="-cATWhY0UsbGGL24_YLLx"  >
<path style="stroke: none; stroke-width: 1; stroke-dasharray: none; stroke-linecap: butt; stroke-dashoffset: 0; stroke-linejoin: miter; stroke-miterlimit: 4; fill: rgb(47,46,65); fill-rule: nonzero; opacity: 1;" vector-effect="non-scaling-stroke"  transform=" translate(-21, -12.6)" d="M 0 12.59979 C 0 5.641120000000001 9.40185 0 20.99963 0 C 32.597409999999996 0 41.99926 5.64112 41.99926 12.59979 C 41.99926 19.55846 32.597409999999996 25.19958 20.99963 25.19958 C 9.40185 25.19958 0 19.55846 0 12.59979 z" stroke-linecap="round" />
</g>
<g transform="matrix(0.79 0 0 0.79 366.51 160.05)" id="H8Rzvz5z4BsjjXthcVUWQ"  >
<path style="stroke: none; stroke-width: 1; stroke-dasharray: none; stroke-linecap: butt; stroke-dashoffset: 0; stroke-linejoin: miter; stroke-miterlimit: 4; fill: rgb(255,182,182); fill-rule: nonzero; opacity: 1;" vector-effect="non-scaling-stroke"  transform=" translate(-939.2, -475.3)" d="M 964.41425 458.57631 C 964.1861335458184 459.0804602823699 963.99812423676 459.6018126242226 963.85197 460.13552 L 916.80814 475.8316 L 907.7788 467.855 L 893.95969 479.90847 L 908.57205 495.58284000000003 C 910.9968869658226 498.18390823502426 914.8475894147389 498.8721590734158 918.02331 497.2721 L 968.4106400000001 471.88489000000004 C 972.1183468747978 474.18753950369296 976.8640461428845 473.95568613334274 980.329637331476 471.3025817780946 C 983.7952285200674 468.6494774228464 985.2575492259655 464.1287434468682 984.0023092828085 459.94859300802244 C 982.7470693396514 455.76844256917667 979.0361987572084 452.80114463185714 974.6823220541565 452.4961156809322 C 970.3284453511047 452.1910867300072 966.2400828255601 454.6119769357341 964.41425 458.57627 Z" stroke-linecap="round" />
</g>
<g transform="matrix(0.79 0 0 0.79 334.02 156.07)" id="bc66clZrjy2aZxceN3Pjn"  >
<path style="stroke: none; stroke-width: 1; stroke-dasharray: none; stroke-linecap: butt; stroke-dashoffset: 0; stroke-linejoin: miter; stroke-miterlimit: 4; fill: rgb(255,255,255); fill-rule: nonzero; opacity: 1;" vector-effect="non-scaling-stroke"  transform=" translate(-896.41, -471.73)" d="M 915.16641 476.69464 L 897.96641 491.55064 C 896.9761209857767 492.40595578709366 895.6625782477105 492.78786274508803 894.3680712463694 492.5968416708002 C 893.0735642450284 492.40582059651234 891.9263152221948 491.6607923226203 891.22528 490.5559 L 879.0872 471.4226 C 874.6128219373495 466.18389085124295 875.2219363359878 458.3122380229202 880.4489749302774 453.8242317699603 C 885.6760135245669 449.33622551700046 893.5492259970051 449.92483741300043 898.05083 455.14017 L 915.16292 469.88056 C 916.1540775763609 470.7348661990613 916.724289410488 471.9782888910163 916.7249672801976 473.28681170832783 C 916.7256451499071 474.59533452563943 916.1567219117143 475.8393473373465 915.1664499999999 476.69468 Z" stroke-linecap="round" />
</g>
</svg>