<svg height="613" viewBox="475 140 476 157" width="613" xmlns="http://www.w3.org/2000/svg">
  <path d="m679.306 406.177h-12.259l-5.833-47.288 18.094.001z" fill="#ffb8b8" />
  <path d="m830.52529 658.56159-39.53052-.00147v-.5a15.38605 15.38605 0 0 1 15.38648-15.38623h.001l24.1438.001z"
    fill="#2f2e41" transform="translate(-148.09252 -240.5)" />
  <path d="m816.262 394.707-11.557 4.092-21.285-42.627 17.056-6.04z" fill="#ffb8b8" />
  <path
    d="m971.269 645.3652-37.26281 13.19639-.16693-.47131a15.38606 15.38606 0 0 1 9.36673-19.64037l.00092-.00033 22.7588-8.05979z"
    fill="#2f2e41" transform="translate(-148.09252 -240.5)" />
  <path
    d="m827.05741 630.80006a4.61332 4.61332 0 0 1 -.82031-.07421l-14.99194-2.72559a4.52108 4.52108 0 0 1 -3.69751-4.33691c-2.1792-100.91407 8.53467-168.72852 31.8435-217.33594a4.47342 4.47342 0 0 1 4.69092-2.48145l53.91162 7.78321a4.50521 4.50521 0 0 1 3.82788 3.94726l4.75391 41.90332a3.54563 3.54563 0 0 0 .14185.666l51.68921 154.86914a4.5194 4.5194 0 0 1 -2.866 5.63086l-13.96848 4.65625a4.52335 4.52335 0 0 1 -5.44824-2.25684l-69.91821-131.83689a1.50017 1.50017 0 0 0 -2.80689.34961l-31.96118 137.70512a4.48168 4.48168 0 0 1 -4.38013 3.53706z"
    fill="#2f2e41" transform="translate(-148.09252 -240.5)" />
  <path
    d="m784.44969 324.5973a10.52739 10.52739 0 0 1 .2393 1.64013l42.95745 24.782 10.44141-6.01094 11.13115 14.57227-17.45033 12.43754a8 8 0 0 1 -9.59819-.23384l-44.29648-34.94583a10.4971 10.4971 0 1 1 6.57573-12.24133z"
    fill="#ffb8b8" transform="translate(-148.09252 -240.5)" />
  <path
    d="m828.23667 348.54228a4.49518 4.49518 0 0 1 2.21126-3.025l19.713-11.02278a12.49741 12.49741 0 0 1 15.32664 19.74413l-15.71732 16.32122a4.5 4.5 0 0 1 -6.80392-.37268l-13.88374-17.994a4.495 4.495 0 0 1 -.84592-3.65089z"
    fill="rgba(16, 185, 129)" transform="translate(-148.09252 -240.5)" />
  <circle cx="726.04977" cy="57.06582" fill="#ffb8b8" r="24.56103" />
  <g transform="translate(-148.09252 -240.5)">
    <path
      d="m898.05864 416.86842a4.49986 4.49986 0 0 1 -.728-.05957l-53.15335-8.71385a4.49988 4.49988 0 0 1 -3.67407-5.374l2.58593-12.1914c-1.32373-1.97461-12.10254-19.14551 1.02564-35.27442a22.01039 22.01039 0 0 1 20.43335-22.92187l27.46924-2.08692a22.12706 22.12706 0 0 1 23.02172 27.88477l-12.593 55.2373a4.51031 4.51031 0 0 1 -4.38746 3.49996z"
      fill="rgba(16, 185, 129)" />
    <path
      d="m947.6947 463.05847a10.74272 10.74272 0 0 0 -4.27021-15.90952l-30.26349-93.04686-17.53839 8.322 33.11316 90.59865a10.80091 10.80091 0 0 0 18.95894 10.03573z"
      fill="#ffb8b8" />
    <path
      d="m919.855 369.59337-23.28842 7.035a4.81687 4.81687 0 0 1 -6.15823-3.90862l-3.5355-23.995a13.37737 13.37737 0 0 1 25.63415-7.66175l10.31233 21.866a4.81689 4.81689 0 0 1 -2.96431 6.66438z"
      fill="rgba(16, 185, 129)" />
    <path
      d="m850.26787 298.51445a30.44348 30.44348 0 0 0 32.21073-6.76432c-2.57623 6.80639-1.856 35.674-1.856 35.674s22.84668-10.84668 25.94629-12.74359c18.30713-11.20417-6.9419-59.94287-27.94629-52.25641-3.55762 1.30188-6.529 2.83372-7.96807 6.33788-3.13633-3.86875-9.07321-4.70786-13.63995-2.72072s-7.81312 6.29343-9.55868 10.95785a27.4066 27.4066 0 0 0 1.993 23.11342z" />
  </g>
</svg>