<?xml version="1.0" encoding="UTF-8" standalone="no" ?>
<!DOCTYPE svg PUBLIC "-//W3C//DTD SVG 1.1//EN" "http://www.w3.org/Graphics/SVG/1.1/DTD/svg11.dtd">
<svg xmlns="http://www.w3.org/2000/svg" xmlns:xlink="http://www.w3.org/1999/xlink" version="1.1" width="238" height="281" viewBox="192 81 238 281" xml:space="preserve">
<desc>Created with Fabric.js 4.6.0</desc>
<defs>
</defs>
<g transform="matrix(-0.59 0 0 0.59 281.77 350.34)" id="IZ6ODiYbOBfcvc7GRTSAF"  >
<path style="stroke: none; stroke-width: 1; stroke-dasharray: none; stroke-linecap: butt; stroke-dashoffset: 0; stroke-linejoin: miter; stroke-miterlimit: 4; fill: rgb(230,230,230); fill-rule: nonzero; opacity: 1;" vector-effect="non-scaling-stroke"  transform=" translate(-141.23, -9.18)" d="M 0 9.17856 C 0 4.109379999999999 63.22999 0 141.22814 0 C 219.22629 0 282.45628 4.10938 282.45628 9.17856 C 282.45628 14.24774 219.22629 18.35712 141.22814 18.35712 C 63.22999 18.35712 0 14.247739999999999 0 9.17856 z" stroke-linecap="round" />
</g>
<g transform="matrix(-0.59 0 0 0.59 292.64 116.48)" id="cXEnUsLKDyvfGBoogQ1H8"  >
<path style="stroke: none; stroke-width: 1; stroke-dasharray: none; stroke-linecap: butt; stroke-dashoffset: 0; stroke-linejoin: miter; stroke-miterlimit: 4; fill: rgb(47,46,65); fill-rule: nonzero; opacity: 1;" vector-effect="non-scaling-stroke"  transform=" translate(-28.67, -28.67)" d="M 0 28.67357 C 0 12.837590000000002 12.83759 0 28.67357 0 C 44.509550000000004 0 57.34714 12.83759 57.34714 28.67357 C 57.34714 44.509550000000004 44.509550000000004 57.34714 28.67357 57.34714 C 12.837590000000002 57.34714 0 44.509550000000004 0 28.67357 z" stroke-linecap="round" />
</g>
<g transform="matrix(-0.59 0 0 0.59 290.72 135.16)" id="3D1BtVhNcApXxXR1kig9S"  >
<path style="stroke: none; stroke-width: 1; stroke-dasharray: none; stroke-linecap: butt; stroke-dashoffset: 0; stroke-linejoin: miter; stroke-miterlimit: 4; fill: rgb(255,184,184); fill-rule: nonzero; opacity: 1;" vector-effect="non-scaling-stroke"  transform=" translate(-647.88, -219.22)" d="M 659.70627 206.48938 C 659.70627 206.48938 659.27457 224.18874 661.0013700000001 224.62044 C 662.7281700000001 225.05214 637.25837 231.95922000000002 637.25837 231.95922000000002 L 634.66824 207.78447000000003 Z" stroke-linecap="round" />
</g>
<g transform="matrix(-0.59 0 0 0.59 408.68 221.02)" id="ie5rteFZyLX7BWgFFeg9Q"  >
<path style="stroke: none; stroke-width: 1; stroke-dasharray: none; stroke-linecap: butt; stroke-dashoffset: 0; stroke-linejoin: miter; stroke-miterlimit: 4; fill: rgb(255,184,184); fill-rule: nonzero; opacity: 1;" vector-effect="non-scaling-stroke"  transform=" translate(-446.95, -365.49)" d="M 458.538 357.58143 C 458.538 357.58143 439.54358 357.58143 439.11188 355.42299 C 438.68017999999995 353.26455000000004 434.79496 373.12232 434.79496 373.12232 L 442.56541 375.71245 C 442.56541 375.71245 457.24291 369.2371 458.538 369.2371 C 459.83309 369.2371 458.538 357.58143 458.538 357.58143 Z" stroke-linecap="round" />
</g>
<g transform="matrix(-0.59 0 0 0.59 416.62 215.91)" id="7xYXpk601YKsuqVBaTjTo"  >
<path style="stroke: none; stroke-width: 1; stroke-dasharray: none; stroke-linecap: butt; stroke-dashoffset: 0; stroke-linejoin: miter; stroke-miterlimit: 4; fill: rgb(47,46,65); fill-rule: nonzero; opacity: 1;" vector-effect="non-scaling-stroke"  transform=" translate(-433.42, -356.77)" d="M 437.8168 365.35187 C 437.8168 365.35187 441.27032 353.69620000000003 445.58724 353.2645 C 445.58724 353.2645 430.90974 343.76726 430.47805 340.74544 C 430.04636 337.7236199999999 424.86605 329.95315999999997 422.7076 332.54328999999996 C 420.54915000000005 335.13341999999994 420.54911000000004 376.14414999999997 424.43439 380.46106999999995 C 428.31967 384.77798999999993 445.5873 374.39332999999993 445.5873 374.39332999999993 C 445.5873 374.39332999999993 434.79491 369.6688 437.8168 365.35187 Z" stroke-linecap="round" />
</g>
<g transform="matrix(-0.59 0 0 0.59 279.09 324.22)" id="_iH7DDH5LYkyHPfZI7kCQ"  >
<path style="stroke: none; stroke-width: 1; stroke-dasharray: none; stroke-linecap: butt; stroke-dashoffset: 0; stroke-linejoin: miter; stroke-miterlimit: 4; fill: rgb(255,184,184); fill-rule: nonzero; opacity: 1;" vector-effect="non-scaling-stroke"  transform=" translate(-564.89, -430.33)" d="M 569.428 419.757 L 572.881 438.319 L 556.909 440.909 L 556.909 419.757 z" stroke-linecap="round" />
</g>
<g transform="matrix(-0.59 0 0 0.59 279.71 338.52)" id="gLEClJE5JSGNQoRTujf9P"  >
<path style="stroke: none; stroke-width: 1; stroke-dasharray: none; stroke-linecap: butt; stroke-dashoffset: 0; stroke-linejoin: miter; stroke-miterlimit: 4; fill: rgb(47,46,65); fill-rule: nonzero; opacity: 1;" vector-effect="non-scaling-stroke"  transform=" translate(-666.63, -565.63)" d="M 672.22534 547.09407 C 672.22534 547.09407 674.81547 538.89193 676.5422599999999 540.18702 C 678.2690499999999 541.4821099999999 680.8591899999999 549.68426 680.4274899999999 551.84269 C 679.9957899999999 554.0011199999999 676.9739599999999 570.8371199999999 678.2690499999999 573.85894 C 679.5641399999998 576.88076 671.7936999999998 592.42167 661.8647599999999 591.12663 C 651.93582 589.83159 652.7992199999999 581.19769 652.7992199999999 581.19769 L 656.2527499999999 567.81529 L 657.5478399999998 546.66237 C 657.5478399999998 546.66237 668.77181 544.93558 672.22534 547.09407 Z" stroke-linecap="round" />
</g>
<g transform="matrix(-0.59 0 0 0.59 286.75 98.76)" id="0y1lS8cU1u9Y1E7OJCG-x"  >
<path style="stroke: none; stroke-width: 1; stroke-dasharray: none; stroke-linecap: butt; stroke-dashoffset: 0; stroke-linejoin: miter; stroke-miterlimit: 4; fill: rgb(47,46,65); fill-rule: nonzero; opacity: 1;" vector-effect="non-scaling-stroke"  transform=" translate(-11.86, -11.86)" d="M 0 11.86494 C 0 5.3121100000000006 5.31211 0 11.86494 0 C 18.41777 0 23.72988 5.31211 23.72988 11.86494 C 23.72988 18.41777 18.41777 23.72988 11.86494 23.72988 C 5.3121100000000006 23.72988 0 18.41777 0 11.86494 z" stroke-linecap="round" />
</g>
<g transform="matrix(-0.59 0 0 0.59 279.86 94.99)" id="BtS3BPGbLTlVL7eFYmDZc"  >
<path style="stroke: none; stroke-width: 1; stroke-dasharray: none; stroke-linecap: butt; stroke-dashoffset: 0; stroke-linejoin: miter; stroke-miterlimit: 4; fill: rgb(47,46,65); fill-rule: nonzero; opacity: 1;" vector-effect="non-scaling-stroke"  transform=" translate(-666.38, -150.79)" d="M 670.45981 150.79457 C 670.4594640034629 144.7202868260916 665.87199151605 139.62707883801295 659.8308099999999 138.9938 C 660.2414304680674 138.95114829762386 660.6539803376096 138.9297397631316 661.0668099999999 138.92965999999998 C 667.6153737062845 138.93567192569012 672.9208473752018 144.24601853408416 672.9208473752018 150.79458499999998 C 672.9208473752018 157.34315146591578 667.6153737062845 162.65349807430985 661.0668099999999 162.65950999999998 C 660.6539813784344 162.6593902820399 660.2414335684643 162.63798185442545 659.8308099999999 162.59536999999997 C 665.8719984449054 161.96208116387265 670.4594701397781 156.8688611077194 670.45981 150.79457 Z" stroke-linecap="round" />
</g>
<g transform="matrix(-0.59 0 0 0.59 292.65 124.14)" id="LEdRb_W89XiZCDqf2WVJ2"  >
<path style="stroke: none; stroke-width: 1; stroke-dasharray: none; stroke-linecap: butt; stroke-dashoffset: 0; stroke-linejoin: miter; stroke-miterlimit: 4; fill: rgb(255,184,184); fill-rule: nonzero; opacity: 1;" vector-effect="non-scaling-stroke"  transform=" translate(-18.13, -18.13)" d="M 0 18.13104 C 0 8.117539999999998 8.11754 0 18.13104 0 C 28.14454 0 36.26208 8.11754 36.26208 18.13104 C 36.26208 28.14454 28.14454 36.26208 18.13104 36.26208 C 8.117539999999998 36.26208 0 28.14454 0 18.13104 z" stroke-linecap="round" />
</g>
<g transform="matrix(-0.59 0 0 0.59 338.77 258.99)" id="3eni1ofG4NhSAYafBCZ3B"  >
<path style="stroke: none; stroke-width: 1; stroke-dasharray: none; stroke-linecap: butt; stroke-dashoffset: 0; stroke-linejoin: miter; stroke-miterlimit: 4; fill: rgb(47,46,65); fill-rule: nonzero; opacity: 1;" vector-effect="non-scaling-stroke"  transform=" translate(-566.03, -430.17)" d="M 680.42749 326.49963 C 680.42749 326.49963 679.5640900000001 348.08419000000004 676.11057 359.30822 C 672.65705 370.53225 660.2061900000001 450.46655 662.79638 456.51022 C 665.3865699999999 462.55389 678.70075 529.3947000000001 675.67892 533.27993 C 672.6570899999999 537.16516 658.4112399999999 535.8700600000001 658.4112399999999 535.8700600000001 L 639.0533399999999 454.78343000000007 C 639.0533399999999 454.78343000000007 642.8703399999999 365.35183000000006 610.9251499999999 363.19343000000003 C 578.9799599999999 361.03503 526.7452499999999 359.73991 526.7452499999999 359.73991 C 526.7452499999999 359.73991 493.07332999999994 369.66879 477.96412999999995 369.23715 C 462.85492999999997 368.80550999999997 454.22112999999996 373.12237 454.22112999999996 373.12237 L 451.631 355.42305 L 518.5432099999999 340.74555 C 518.5432099999999 340.74555 579.8434 319.59263999999996 613.5153799999999 325.20464999999996 C 647.1873599999999 330.81665999999996 680.42749 326.49963 680.42749 326.49963 Z" stroke-linecap="round" />
</g>
<g transform="matrix(-0.59 0 0 0.59 286.82 170.35)" id="rNvjw8cFfSRysTAbHA-2d"  >
<path style="stroke: none; stroke-width: 1; stroke-dasharray: none; stroke-linecap: butt; stroke-dashoffset: 0; stroke-linejoin: miter; stroke-miterlimit: 4; fill: rgb(63,61,86); fill-rule: nonzero; opacity: 1;" vector-effect="non-scaling-stroke"  transform=" translate(-654.53, -279.17)" d="M 656.25275 219.00842 C 656.25275 219.00842 661.43306 215.98656 662.7281 219.00842 C 664.0231400000001 222.03028 673.0886800000001 224.62042 676.54226 222.03028 C 679.99584 219.44014 688.62963 222.89367000000001 688.62963 222.89367000000001 L 698.12687 250.95367000000002 C 698.12687 250.95367000000002 693.3782500000001 275.12841000000003 689.06133 288.51085 C 684.7444099999999 301.89329 683.01762 329.52155 684.74441 332.11174 C 686.4712000000001 334.70193 650.2090900000001 345.0625 632.5097000000001 338.58709 C 614.8103100000001 332.11168 610.9250900000001 324.77293 610.9250900000001 324.77293 C 610.9250900000001 324.77293 630.35121 297.14466 623.8758600000001 284.19392999999997 C 617.4005100000002 271.24319999999994 622.5807700000001 256.56566999999995 622.5807700000001 256.56566999999995 L 619.9906300000001 241.88813999999996 L 634.6681400000001 233.68598999999998 C 634.6681400000001 233.68598999999998 635.5315300000001 225.91553999999996 638.9850600000001 225.91553999999996 C 642.4385900000001 225.91553999999996 656.25275 219.00842 656.25275 219.00842 Z" stroke-linecap="round" />
</g>
<g transform="matrix(-0.59 0 0 0.59 305.02 163.04)" id="HTl-GvTOMztuXRxhX-_tH"  >
<path style="stroke: none; stroke-width: 1; stroke-dasharray: none; stroke-linecap: butt; stroke-dashoffset: 0; stroke-linejoin: miter; stroke-miterlimit: 4; fill: rgb(63,61,86); fill-rule: nonzero; opacity: 1;" vector-effect="non-scaling-stroke"  transform=" translate(-623.52, -266.71)" d="M 626.466 242.31977 L 619.99064 242.31977 C 616.3389607716929 245.73688631626416 614.7071990780515 250.79533925072622 615.67372 255.7022 C 617.40051 263.90435 625.18809 291.09692 625.18809 291.09692 L 631.64632 274.26492 Z" stroke-linecap="round" />
</g>
<g transform="matrix(-0.59 0 0 0.59 313.76 196.08)" id="NqxyTlTmXuTUDWpYq633P"  >
<path style="stroke: none; stroke-width: 1; stroke-dasharray: none; stroke-linecap: butt; stroke-dashoffset: 0; stroke-linejoin: miter; stroke-miterlimit: 4; fill: rgb(255,184,184); fill-rule: nonzero; opacity: 1;" vector-effect="non-scaling-stroke"  transform=" translate(-608.63, -323)" d="M 607.87142 311.64706 C 607.87142 311.64706 594.95256 325.63624 604.4498 332.97499 C 613.94704 340.31374 616.28721 316.13905 616.28721 316.13905 Z" stroke-linecap="round" />
</g>
<g transform="matrix(-0.59 0 0 0.59 310.7 183.31)" id="QKg8r8UujWcBTx7cWzRYy"  >
<path style="stroke: none; stroke-width: 1; stroke-dasharray: none; stroke-linecap: butt; stroke-dashoffset: 0; stroke-linejoin: miter; stroke-miterlimit: 4; fill: rgb(63,61,86); fill-rule: nonzero; opacity: 1;" vector-effect="non-scaling-stroke"  transform=" translate(-613.84, -301.25)" d="M 626.466 282.4671 L 623.44417 294.55447000000004 L 618.2638499999999 304.05168000000003 C 618.2638499999999 304.05168000000003 600.5645199999999 315.70736000000005 600.5645199999999 320.02428000000003 C 600.5645199999999 320.02428000000003 608.3349699999999 310.09537000000006 618.2638499999999 320.02428000000003 L 627.1135199999999 298.65554000000003 Z" stroke-linecap="round" />
</g>
<g transform="matrix(-0.59 0 0 0.59 294.6 112.91)" id="C4JojC2Ng7dbJXBjYsX6u"  >
<path style="stroke: none; stroke-width: 1; stroke-dasharray: none; stroke-linecap: butt; stroke-dashoffset: 0; stroke-linejoin: miter; stroke-miterlimit: 4; fill: rgb(47,46,65); fill-rule: nonzero; opacity: 1;" vector-effect="non-scaling-stroke"  transform=" translate(-19.77, -11.86)" d="M 0 11.86494 C 0 5.3121100000000006 8.85352 0 19.77488 0 C 30.69624 0 39.54976 5.31211 39.54976 11.86494 C 39.54976 18.41777 30.69624 23.72988 19.77488 23.72988 C 8.85352 23.72988 0 18.41777 0 11.86494 z" stroke-linecap="round" />
</g>
<g transform="matrix(-0.59 0 0 0.59 277.58 115.81)" id="AgOsgxzUKswzSco84dsX0"  >
<path style="stroke: none; stroke-width: 1; stroke-dasharray: none; stroke-linecap: butt; stroke-dashoffset: 0; stroke-linejoin: miter; stroke-miterlimit: 4; fill: rgb(255,184,184); fill-rule: nonzero; opacity: 1;" vector-effect="non-scaling-stroke"  transform=" translate(-670.26, -186.26)" d="M 680.42749 182.31464 C 680.42749 182.31464 666.61332 174.54419 661.0013700000001 180.15618 C 655.3894200000001 185.76817000000003 677.8373700000001 194.40201000000002 677.8373700000001 194.40201000000002 Z" stroke-linecap="round" />
</g>
<g transform="matrix(-0.59 0 0 0.59 255.5 132.86)" id="WVhYBQh96C4-mZFL-jw49"  >
<path style="stroke: none; stroke-width: 1; stroke-dasharray: none; stroke-linecap: butt; stroke-dashoffset: 0; stroke-linejoin: miter; stroke-miterlimit: 4; fill: rgb(63,61,86); fill-rule: nonzero; opacity: 1;" vector-effect="non-scaling-stroke"  transform=" translate(-707.87, -215.3)" d="M 685.60775 225.05211 L 688.62958 222.89364 C 688.62958 222.89364 692.0831000000001 217.71336 695.1049300000001 219.44012 C 698.1267600000001 221.16688000000002 715.8261500000001 212.96473 715.8261500000001 212.96473 C 715.8261500000001 212.96473 709.3507900000001 215.98659 709.3507900000001 210.80627 C 709.3507900000001 205.62595000000002 708.4873900000001 206.48935 704.17047 206.48935 C 699.8535499999999 206.48935 699.85355 208.64781 698.12676 205.62596 C 696.3999699999999 202.60411 697.26336 200.87734 694.24153 202.6041 C 691.2197 204.33085999999997 687.76618 203.0358 686.90278 201.74069999999998 C 686.03938 200.44559999999996 670.4984900000001 198.28717999999998 670.4984900000001 198.28717999999998 C 670.4984900000001 198.28717999999998 676.5422100000001 180.58781999999997 677.8372400000001 179.29274999999998 C 679.1322700000001 177.99768 712.3726200000001 192.67524999999998 712.3726200000001 192.67524999999998 C 712.3726200000001 192.67524999999998 754.2466900000001 204.33092 743.45441 217.71335999999997 C 732.66213 231.09579999999994 693.80989 251.38535999999996 693.80989 251.38535999999996 Z" stroke-linecap="round" />
</g>
</svg>