<?xml version="1.0" encoding="UTF-8" standalone="no" ?>
<!DOCTYPE svg PUBLIC "-//W3C//DTD SVG 1.1//EN" "http://www.w3.org/Graphics/SVG/1.1/DTD/svg11.dtd">
<svg xmlns="http://www.w3.org/2000/svg" xmlns:xlink="http://www.w3.org/1999/xlink" version="1.1" width="402" height="420" viewBox="46 38 402 420" xml:space="preserve">
<desc>Created with Fabric.js 4.6.0</desc>
<defs>
</defs>
<g transform="matrix(0.49 0 0 0.49 202.66 424.88)" id="TEtEAsJ0jsJ6PZffpgdeF"  >
<path style="stroke: none; stroke-width: 1; stroke-dasharray: none; stroke-linecap: butt; stroke-dashoffset: 0; stroke-linejoin: miter; stroke-miterlimit: 4; fill: rgb(63,61,86); fill-rule: nonzero; opacity: 1;" vector-effect="non-scaling-stroke"  transform=" translate(-308.5, -54.5)" d="M 0 54.5 C 0 24.40048 138.12015 0 308.5 0 C 478.87985000000003 0 617 24.40048 617 54.5 C 617 84.59952 478.87985000000003 109 308.5 109 C 138.12015 109 0 84.59952 0 54.5 z" stroke-linecap="round" />
</g>
<g transform="matrix(0.49 0 0 0.49 294.03 191.7)" id="3Iv5riMTGE9RYQNLNbM9h"  >
<path style="stroke: none; stroke-width: 1; stroke-dasharray: none; stroke-linecap: butt; stroke-dashoffset: 0; stroke-linejoin: miter; stroke-miterlimit: 4; fill: rgb(63,61,86); fill-rule: nonzero; opacity: 1;" vector-effect="non-scaling-stroke"  transform=" translate(-301.5, -301.5)" d="M 0 301.5 C 0 134.98615 134.98615 0 301.5 0 C 468.01385 0 603 134.98615 603 301.5 C 603 468.01385 468.01385 603 301.5 603 C 134.98615 603 0 468.01385 0 301.5 z" stroke-linecap="round" />
</g>
<g transform="matrix(0.49 0 0 0.49 294.03 191.7)" id="2ToRWyfcx1JRKaoYi2W6C"  >
<path style="stroke: none; stroke-width: 1; stroke-dasharray: none; stroke-linecap: butt; stroke-dashoffset: 0; stroke-linejoin: miter; stroke-miterlimit: 4; fill: rgb(0,0,0); fill-rule: nonzero; opacity: 0.05;" vector-effect="non-scaling-stroke"  transform=" translate(-248.9, -248.9)" d="M 0 248.89787 C 0 111.43537 111.43537 0 248.89787 0 C 386.36037 0 497.79574 111.43537 497.79574 248.89787 C 497.79574 386.36037 386.36037 497.79574 248.89787 497.79574 C 111.43537 497.79574 0 386.36037 0 248.89787 z" stroke-linecap="round" />
</g>
<g transform="matrix(0.49 0 0 0.49 294.03 191.7)" id="bv7XBdiEb48oY5InHvHE1"  >
<path style="stroke: none; stroke-width: 1; stroke-dasharray: none; stroke-linecap: butt; stroke-dashoffset: 0; stroke-linejoin: miter; stroke-miterlimit: 4; fill: rgb(0,0,0); fill-rule: nonzero; opacity: 0.05;" vector-effect="non-scaling-stroke"  transform=" translate(-203.99, -203.99)" d="M 0 203.99362 C 0 91.33104999999999 91.33105 0 203.99362 0 C 316.65619 0 407.98724 91.33105 407.98724 203.99362 C 407.98724 316.65619 316.65619 407.98724 203.99362 407.98724 C 91.33104999999999 407.98724 0 316.65619 0 203.99362 z" stroke-linecap="round" />
</g>
<g transform="matrix(0.49 0 0 0.49 294.03 191.7)" id="BHYRpEL2icagnTaWKRMyw"  >
<path style="stroke: none; stroke-width: 1; stroke-dasharray: none; stroke-linecap: butt; stroke-dashoffset: 0; stroke-linejoin: miter; stroke-miterlimit: 4; fill: rgb(0,0,0); fill-rule: nonzero; opacity: 0.05;" vector-effect="non-scaling-stroke"  transform=" translate(-146.26, -146.26)" d="M 0 146.25957 C 0 65.48264 65.48264 0 146.25957 0 C 227.0365 0 292.51914 65.48264 292.51914 146.25957 C 292.51914 227.0365 227.0365 292.51914 146.25957 292.51914 C 65.48264 292.51914 0 227.0365 0 146.25957 z" stroke-linecap="round" />
</g>
<g transform="matrix(0.49 0 0 0.49 147.96 238.22)" id="JAx0fYYMm0-GdZ_upGINh"  >
<path style="stroke: none; stroke-width: 1; stroke-dasharray: none; stroke-linecap: butt; stroke-dashoffset: 0; stroke-linejoin: miter; stroke-miterlimit: 4; fill: rgb(208,205,225); fill-rule: nonzero; opacity: 1;" vector-effect="non-scaling-stroke"  transform=" translate(-397.51, -429.71)" d="M 398.42029 361.23224 C 398.42029 361.23224 374.71635000000003 427.95445 385.25143 451.65839 C 395.78651 475.36233 412.46707000000004 498.18834 412.46707000000004 498.18834 C 412.46707000000004 498.18834 406.3216 365.62186 398.42029 361.23224 Z" stroke-linecap="round" />
</g>
<g transform="matrix(0.49 0 0 0.49 147.96 238.22)" id="y4LSFhT2b4rjy3gAsFtwS"  >
<path style="stroke: none; stroke-width: 1; stroke-dasharray: none; stroke-linecap: butt; stroke-dashoffset: 0; stroke-linejoin: miter; stroke-miterlimit: 4; fill: rgb(0,0,0); fill-rule: nonzero; opacity: 0.1;" vector-effect="non-scaling-stroke"  transform=" translate(-397.51, -429.71)" d="M 398.42029 361.23224 C 398.42029 361.23224 374.71635000000003 427.95445 385.25143 451.65839 C 395.78651 475.36233 412.46707000000004 498.18834 412.46707000000004 498.18834 C 412.46707000000004 498.18834 406.3216 365.62186 398.42029 361.23224 Z" stroke-linecap="round" />
</g>
<g transform="matrix(0.49 0 0 0.49 181.11 351.6)" id="yCT00jb3jDtlYlgoiUfD9"  >
<path style="stroke: none; stroke-width: 1; stroke-dasharray: none; stroke-linecap: butt; stroke-dashoffset: 0; stroke-linejoin: miter; stroke-miterlimit: 4; fill: rgb(47,46,65); fill-rule: nonzero; opacity: 1;" vector-effect="non-scaling-stroke"  transform=" translate(-465.54, -662.38)" d="M 415.10084 515.74682 C 415.10084 515.74682 413.34499 532.42737 412.46707 533.30529 C 411.58914999999996 534.18321 413.34499 535.93906 412.46707 538.5728300000001 C 411.58914999999996 541.2066000000001 410.71121999999997 544.7183000000001 412.46707 545.59622 C 414.22292 546.4741399999999 402.80991 623.73143 402.80991 623.73143 C 402.80991 623.73143 374.71635 660.60423 386.12936 718.54719 L 389.64105 777.36808 C 389.64105 777.36808 416.85669 779.12393 416.85669 769.4667599999999 C 416.85669 769.4667599999999 415.10084 758.0537599999999 415.10084 752.7862099999999 C 415.10084 747.5186599999998 419.49046 747.5186699999998 416.85669 744.8848999999999 C 414.22292000000004 742.25113 414.22292 740.4952799999999 414.22292 740.4952799999999 C 414.22292 740.4952799999999 418.61253 736.9835899999998 417.73461 736.1056599999998 C 416.85668999999996 735.2277299999998 425.63592 672.8951599999998 425.63592 672.8951599999998 C 425.63592 672.8951599999998 435.29308 663.2379999999998 435.29308 657.9704499999998 L 435.29308 652.7029099999997 C 435.29308 652.7029099999997 439.68269999999995 641.2899099999997 439.68269999999995 640.4119799999997 C 439.68269999999995 639.5340499999998 463.38663999999994 585.9807099999997 463.38663999999994 585.9807099999997 L 473.0437999999999 624.6093499999997 L 483.57888999999994 679.9185499999998 C 483.57888999999994 679.9185499999998 488.84642999999994 729.9601999999998 499.38150999999993 749.2745499999997 C 499.38150999999993 749.2745499999997 517.81791 812.4850599999997 517.81791 810.7292099999997 C 517.81791 808.9733599999997 548.54524 804.5837399999997 547.66732 796.6824299999997 C 546.7894 788.7811199999998 529.23092 678.1627299999998 529.23092 678.1627299999998 L 533.62054 513.991 Z" stroke-linecap="round" />
</g>
<g transform="matrix(0.49 0 0 0.49 153.92 414.93)" id="SwkT9aeLi0RZVlAPGsXP8"  >
<path style="stroke: none; stroke-width: 1; stroke-dasharray: none; stroke-linecap: butt; stroke-dashoffset: 0; stroke-linejoin: miter; stroke-miterlimit: 4; fill: rgb(47,46,65); fill-rule: nonzero; opacity: 1;" vector-effect="non-scaling-stroke"  transform=" translate(-409.74, -792.34)" d="M 391.3969 772.97846 C 391.3969 772.97846 367.69296 819.50846 383.49559 821.26426 C 399.29821999999996 823.0200600000001 405.44368 823.02011 412.46707 815.99672 C 416.30674999999997 812.1570399999999 424.08234999999996 807.00538 430.34272999999996 803.12387 C 437.912005104738 798.5064901478652 442.17342346993036 789.9666021962539 441.31165999999996 781.14212 C 440.84865999999994 776.84681 439.24373999999995 773.30768 435.29308 772.9784599999999 C 424.758 772.1005399999999 412.46707999999995 762.4433799999999 412.46707999999995 762.4433799999999 Z" stroke-linecap="round" />
</g>
<g transform="matrix(0.49 0 0 0.49 217.67 431.62)" id="-4FMEo0tsbklHVdArRaMb"  >
<path style="stroke: none; stroke-width: 1; stroke-dasharray: none; stroke-linecap: butt; stroke-dashoffset: 0; stroke-linejoin: miter; stroke-miterlimit: 4; fill: rgb(47,46,65); fill-rule: nonzero; opacity: 1;" vector-effect="non-scaling-stroke"  transform=" translate(-540.55, -826.58)" d="M 522.20753 807.21748 C 522.20753 807.21748 498.50359000000003 853.74748 514.30622 855.50329 C 530.1088500000001 857.2591 536.25431 857.25913 543.2777000000001 850.2357499999999 C 547.1173800000001 846.3960599999999 554.8929800000001 841.2444099999999 561.1533600000001 837.3629 C 568.7226351047382 832.7455201478651 572.9840534699306 824.2056321962539 572.1222900000001 815.3811499999999 C 571.6592900000002 811.08584 570.0543700000002 807.54671 566.1037200000002 807.2174799999999 C 555.5686300000002 806.3395599999999 543.2777200000002 796.6823999999999 543.2777200000002 796.6823999999999 Z" stroke-linecap="round" />
</g>
<g transform="matrix(0.49 0 0 0.49 196.52 149.76)" id="qjoZXOmFMjUIcPXbyVikm"  >
<path style="stroke: none; stroke-width: 1; stroke-dasharray: none; stroke-linecap: butt; stroke-dashoffset: 0; stroke-linejoin: miter; stroke-miterlimit: 4; fill: rgb(255,184,184); fill-rule: nonzero; opacity: 1;" vector-effect="non-scaling-stroke"  transform=" translate(-36.9, -36.9)" d="M 0 36.90462 C 0 16.52276 16.52276 0 36.90462 0 C 57.28648 0 73.80924 16.52276 73.80924 36.90462 C 73.80924 57.28648 57.28648 73.80924 36.90462 73.80924 C 16.52276 73.80924 0 57.28648 0 36.90462 z" stroke-linecap="round" />
</g>
<g transform="matrix(0.49 0 0 0.49 186.48 171.35)" id="ydQndm9yP2KGq5t8nw_Sv"  >
<path style="stroke: none; stroke-width: 1; stroke-dasharray: none; stroke-linecap: butt; stroke-dashoffset: 0; stroke-linejoin: miter; stroke-miterlimit: 4; fill: rgb(255,184,184); fill-rule: nonzero; opacity: 1;" vector-effect="non-scaling-stroke"  transform=" translate(-476.56, -292.47)" d="M 473.43048 260.30832 C 473.43048 260.30832 447.07 308.81154 444.9612 308.81154 C 442.85240000000005 308.81154 492.41 324.62781 492.41 324.62781 C 492.41 324.62781 506.11743 278.23342 508.22626 274.01575 Z" stroke-linecap="round" />
</g>
<g transform="matrix(0.49 0 0 0.49 181.14 224.95)" id="-poj_EJEFitUDGh6JAWgL"  >
<path style="stroke: none; stroke-width: 1; stroke-dasharray: none; stroke-linecap: butt; stroke-dashoffset: 0; stroke-linejoin: miter; stroke-miterlimit: 4; fill: rgb(208,205,225); fill-rule: nonzero; opacity: 1;" vector-effect="non-scaling-stroke"  transform=" translate(-465.59, -402.48)" d="M 513.86726 313.3854 C 513.86726 313.3854 461.19183 284.41392 455.92426 285.29184 C 450.65669 286.16975999999994 394.4696 335.33349999999996 395.34753 355.52574 C 396.22546 375.71798 403.24884000000003 409.07909 403.24884000000003 409.07909 C 403.24884000000003 409.07909 405.88261000000006 502.139 411.15015000000005 503.01692 C 416.41769000000005 503.89484000000004 410.27223000000004 519.6974700000001 412.02808000000005 519.6974700000001 C 413.78393000000005 519.6974700000001 534.93739 519.6974700000001 535.81532 517.0637 C 536.69325 514.42993 513.86726 313.3854 513.86726 313.3854 Z" stroke-linecap="round" />
</g>
<g transform="matrix(0.49 0 0 0.49 216.73 295.13)" id="Er2p3Q37vkKdFPLYnXLmI"  >
<path style="stroke: none; stroke-width: 1; stroke-dasharray: none; stroke-linecap: butt; stroke-dashoffset: 0; stroke-linejoin: miter; stroke-miterlimit: 4; fill: rgb(255,184,184); fill-rule: nonzero; opacity: 1;" vector-effect="non-scaling-stroke"  transform=" translate(-538.63, -546.5)" d="M 543.2777 521.89228 C 543.2777 521.89228 559.95825 572.81186 545.91147 571.05601 C 531.86469 569.30016 525.71923 527.15982 525.71923 527.15982 Z" stroke-linecap="round" />
</g>
<g transform="matrix(0.49 0 0 0.49 201.96 234.35)" id="7do5dOfM0zMEbP6tSM3Rd"  >
<path style="stroke: none; stroke-width: 1; stroke-dasharray: none; stroke-linecap: butt; stroke-dashoffset: 0; stroke-linejoin: miter; stroke-miterlimit: 4; fill: rgb(208,205,225); fill-rule: nonzero; opacity: 1;" vector-effect="non-scaling-stroke"  transform=" translate(-508.31, -421.76)" d="M 498.50359 310.31267 C 498.50359 310.31267 466.02040999999997 317.33606000000003 471.28796 361.23224000000005 C 476.55551 405.12842000000006 486.21265999999997 449.02461000000005 486.21265999999997 449.02461000000005 L 518.69584 520.13643 L 522.20753 533.30529 L 545.91147 527.15982 L 528.353 425.32067 C 528.353 425.32067 522.2075299999999 316.45814 514.3062199999999 312.94644 C 509.3236662538621 310.8223023175986 503.90572595450317 309.91931283912305 498.50359 310.31267 Z" stroke-linecap="round" />
</g>
<g transform="matrix(0.49 0 0 0.49 197.39 263.59)" id="AlKN0UfNB8TviJq99dd07"  >
<path style="stroke: none; stroke-width: 1; stroke-dasharray: none; stroke-linecap: butt; stroke-dashoffset: 0; stroke-linejoin: miter; stroke-miterlimit: 4; fill: rgb(0,0,0); fill-rule: nonzero; opacity: 0.1;" vector-effect="non-scaling-stroke"  transform=" translate(-297.69, -449.02)" d="M 277.5 414.958 L 317.885 486.947 L 283.86 411.09000000000003 z" stroke-linecap="round" />
</g>
<g transform="matrix(0.49 0 0 0.49 196.78 146.01)" id="jlVM60T5SRK8vMYaTk-Ou"  >
<path style="stroke: none; stroke-width: 1; stroke-dasharray: none; stroke-linecap: butt; stroke-dashoffset: 0; stroke-linejoin: miter; stroke-miterlimit: 4; fill: rgb(47,46,65); fill-rule: nonzero; opacity: 1;" vector-effect="non-scaling-stroke"  transform=" translate(-497.68, -240.47)" d="M 533.896 237.31585 L 534.0179999999999 234.49573 L 539.6280999999999 235.89205 C 539.5064516262605 234.05977568838512 538.5876537403303 232.3729383555451 537.1143 231.27692000000002 L 543.09011 230.94279000000003 C 532.9572361637782 216.54343381694417 517.3764367930914 206.91434842196105 499.96560999999997 204.29143 C 487.03977999999995 202.41797000000003 472.64723999999995 205.12899000000002 463.78360999999995 214.72188000000003 C 459.48434999999995 219.37488000000002 456.78293999999994 225.29206000000002 454.86128999999994 231.32873000000004 C 451.3220299999999 242.44694000000004 450.60090999999994 255.70063000000005 457.98092999999994 264.73811 C 465.48152999999996 273.92324 478.5829299999999 275.7225 490.3868499999999 276.85925000000003 C 494.5401299999999 277.25925 498.8926599999999 277.63141 502.74141999999995 276.01997000000006 C 503.1697874571923 271.60537349498463 502.6046751652516 267.15087132644055 501.0875199999999 262.98309000000006 C 500.45573484917804 261.69289680052754 500.15379185651807 260.2661552589749 500.20872999999995 258.83063000000004 C 500.73342999999994 255.31899000000004 505.41756999999996 254.43428000000003 508.93634999999995 254.90873000000005 C 512.4551299999999 255.38318000000007 516.6861899999999 256.10904000000005 518.99835 253.41441000000006 C 520.59096 251.55832000000007 520.4970199999999 248.85541000000006 520.7080199999999 246.41866000000007 C 521.28248 239.785 533.83587 238.70653 533.896 237.31585 Z" stroke-linecap="round" />
</g>
</svg>