<svg id="e1af729a-78b8-4a9f-b496-fa9ab14cbd6f" data-name="Layer 1" xmlns="http://www.w3.org/2000/svg" width="613"
  height="613" viewBox="0 -50 350 550">
  <path
    d="M336.81243,482.99824a8.56625,8.56625,0,0,0-1.70826-13.02377l7.02037-29.621-14.85846,5.42843-4.3887,27.29637a8.61267,8.61267,0,0,0,13.935,9.92Z"
    transform="translate(-207.41698 -196.12291)" fill="#ffb8b8" />
  <path
    d="M372.5436,358.87081l-5.96311,15.33373s2.55562,15.33372-1.70375,18.74122-2.55562,3.40749-2.55562,5.96311a13.10385,13.10385,0,0,1-5.11124,9.37061c-3.4075,2.55562-18.74122,54.51991-18.74122,54.51991H323.13493a48.04248,48.04248,0,0,0,0-11.92623c-.85187-5.96311,2.55562-21.29684,4.25937-23.85246s0-5.96311,0-11.07436,3.4075-7.66686,3.4075-16.18559,10.22248-74.96488,9.3706-82.63174,8.51874-14.48185,8.51874-14.48185h8.51874Z"
    transform="translate(-207.41698 -196.12291)" fill="rgba(16, 185, 129)" />
  <polygon points="201.206 195.271 215.379 258.521 124.556 252.871 149.253 190.754 201.206 195.271" fill="#ffb8b8" />
  <polygon points="186.082 487.193 196.284 487.192 201.138 447.841 186.08 447.841 186.082 487.193" fill="#ffb8b8" />
  <path
    d="M390.04418,678.28261l16.12758-.9626v6.90976l15.33294,10.58948a4.3161,4.3161,0,0,1-2.45255,7.86784H399.85166l-3.30949-6.83481-1.2922,6.83481h-7.23935Z"
    transform="translate(-207.41698 -196.12291)" fill="#2f2e41" />
  <polygon points="89.657 482.117 99.628 484.279 112.713 446.851 97.998 443.66 89.657 482.117" fill="#ffb8b8" />
  <path
    d="M294.76484,672.58892l15.96506,2.47838L309.265,681.82l12.7394,13.59941a4.3161,4.3161,0,0,1-4.06481,7.169l-18.764-4.07057-1.78527-7.38107-2.71182,6.40549-7.07479-1.53476Z"
    transform="translate(-207.41698 -196.12291)" fill="#2f2e41" />
  <path
    d="M425.11476,507.53416c-7.16,39.35-8.95,56.34-8.95,56.34s5.37,6.26,1.79,9.84,0,10.73,0,10.73L408.583,659.28261l-2,11-18.76824-2.64847,2.76824-10.35153-4.81823-71.93845s-3.58-7.16-1.79-8.95c1.79-1.79-1.79-12.52-1.79-12.52l-4.47-84.96-27.73,93.01s2.68994,3.58,0,6.26c-2.68,2.68-8.04,16.1-8.04,16.1L321.583,648.28261l-4,8-2.12823-1.00846-9.36-1.76-1.72-.31994-3.06-.58-1.97-.37-.67005-.12-3.24-.61005.98-4.35,7.16821-10.88156,7.29175-53.36844.32-1.43.34-1.51s-1.79-4.47.88995-7.16a6.98826,6.98826,0,0,0,1.79-6.26,2.44073,2.44073,0,0,1-.24-.3,3.71248,3.71248,0,0,1-.64-1.46c-.24-1.12-.03-2.69,1.78-4.5a7.63531,7.63531,0,0,0,1.27-1.82c2.72-5.15,4.09-16.06,4.09-16.06s2.42-86.41,10.34-99.61c.42-.69,8.82779-13.9365,9.2678-14.20652,8.94-5.36,78.71357,1.04342,78.71357,1.04342s4.21864,11.33309,4.40864,12.51308C424.23482,448.78416,431.18477,474.15416,425.11476,507.53416Z"
    transform="translate(-207.41698 -196.12291)" fill="#2f2e41" />
  <path
    d="M497.51926,315.42181a8.56624,8.56624,0,0,1-11.04858,7.10391l-18.08777,24.48513-5.4475-14.85148L480.947,311.18476a8.61267,8.61267,0,0,1,16.57223,4.23705Z"
    transform="translate(-207.41698 -196.12291)" fill="#ffb8b8" />
  <path
    d="M332.47706,419.1371c-1.6582,0-2.6001-.32519-2.96484-1.02246-.53516-1.02343.39355-2.36035,1.46875-3.90918a11.959,11.959,0,0,0,1.86328-3.35644c.64306-2.57227,4.9834-67.54688,2.3872-80.5293-.60058-3.00391-.08349-6.85449,1.53614-11.44434,4.42431-12.53515,10.46338-16.38769,22.49414-24.06152q1.46484-.93457,3.05078-1.95215c1.36767-.8789,1.2915-3.793,1.21094-6.8789-.08936-3.42969-.18213-6.97657,1.498-9.19336l.10938-.14453.17627-.041c4.064-.93945,17.73242-2.68359,25.82715.0127l.11181.03808.0835.083c1.92285,1.92285,2.09814,5.64746,2.26758,9.249.13867,2.957.27,5.749,1.35791,6.96192,8.31689,9.2705,17.74951,9.08984,17.84521,9.08789l.46729-.01367.04638.46484c3.61768,36.79785,9.44971,92.33789,10.689,94.52344a.6524.6524,0,0,1,.02051.67578C422.20411,401.08632,338.72706,419.1371,332.47706,419.1371Zm90.689-21.5791Z"
    transform="translate(-207.41698 -196.12291)" fill="rgba(16, 185, 129)" />
  <circle cx="179.38366" cy="45.39742" r="24.66737" fill="#ffb8b8" />
  <path
    d="M403.28154,286.61107c-1.16932-1.66977-7.1-22.06742-9.69852-28.32846-.26587,1.34556-3.24581,6.56249-3.31559,7.95076l-.02586.51428-.51068.06617c-.76811.098-18.91063,2.30014-28.35241-8.406-5.594-6.34164-6.86254-15.85379-3.77563-28.27783a4.92479,4.92479,0,0,1-1.58977-.61233,6.82673,6.82673,0,0,1-2.91007-4.95818l-.52271.14015c-2.66225.71819-5.665,1.66857-7.60479,3.86225-2.1594,2.43969-2.54376,5.75457-2.95157,9.26374a40.03684,40.03684,0,0,1-.791,4.981c-1.31549,5.30705-5.01894,10.27787-11.00749,14.7747-6.02886,4.52751-12.17561,7.11758-18.27,7.69682-7.19818.68692-14.14011-1.67819-18.56356-6.32118-4.93292-5.17653-6.22315-13.141-3.06887-18.9371l.50767-.93354.55759.90466c2.80782,4.557,8.94314,7.01833,14.92147,5.98375,5.126-.88661,10.2075-4.14134,14.30854-9.16449,3.74375-4.58525,6.326-10.00058,8.82344-15.23786,2.54014-5.3251,5.1663-10.83186,8.94915-15.50433,4.26706-5.27036,9.59216-8.71216,14.99485-9.6926,3.93443-.711,7.4454.095,9.63367,2.21593a9.17525,9.17525,0,0,1,2.57743,5.91157,7.41279,7.41279,0,0,1,4.05112.23278,7.5157,7.5157,0,0,1,4.63939,6.14916c7.9272-4.16962,18.4186-3.49112,23.84476-.36271,2.27187,1.31007,3.57653,2.96,3.80811,4.80059,6.409.35789,13.30222,6.60089,13.30222,15.446v.61594h-.61593c-5.07247,0-9.70344,2.91728-12.38795,7.80329a18.11866,18.11866,0,0,0,.557,18.48717,26.06782,26.06782,0,0,1,3.597,19.93079l-2.31458,10.14193Z"
    transform="translate(-207.41698 -196.12291)" fill="#2f2e41" />
  <path
    d="M431.59815,378.86464l-16.26025-9.14648C386.98341,350.06484,379.999,334.45742,379.126,324.8207c-.93165-10.28223,4.54638-15.90625,4.78027-16.13965l.12646-.09277,14.65772-7.48926a14.75225,14.75225,0,0,1,20.57568,8.0957l13.55811,37.28809L447.856,335.39589l6.41064-2.52636,5.17285-6.917,14.207-8.28613,10.5542,9.499-13.273,26.54493-7.374,1.87793-1.564,4.02832-.13916.08886Z"
    transform="translate(-207.41698 -196.12291)" fill="rgba(16, 185, 129)" />
</svg>