<svg height="349" viewBox="76 81 355 349" width="355" xmlns="http://www.w3.org/2000/svg">
  <path
    d="m0 9.17856c0-5.06918 63.22999-9.17856 141.22814-9.17856s141.22814 4.10938 141.22814 9.17856-63.22999 9.17856-141.22814 9.17856-141.22814-4.10938-141.22814-9.17856z"
    fill="#e6e6e6" transform="matrix(.59 0 0 .59 257.1443 344.9238)" />
  <path
    d="m0 28.67357c0-15.83598 12.83759-28.67357 28.67357-28.67357s28.67357 12.83759 28.67357 28.67357-12.83759 28.67357-28.67357 28.67357-28.67357-12.83759-28.67357-28.67357z"
    fill="#2f2e41" transform="matrix(.59 0 0 .59 312.6847 99.5647)" />
  <path d="m659.70627 206.48938s-.4317 17.69936 1.2951 18.13106-23.743 7.33878-23.743 7.33878l-2.59013-24.17475z"
    fill="#ffb8b8" transform="matrix(.59 0 0 .59 -50.7292 5.8202)" />
  <path
    d="m458.538 357.58143s-18.99442 0-19.42612-2.15844-4.31692 17.69933-4.31692 17.69933l7.77045 2.59013s14.6775-6.47535 15.97259-6.47535 0-11.65567 0-11.65567z"
    fill="#ffb8b8" transform="matrix(.59 0 0 .59 -50.1405 5.3809)" />
  <path
    d="m437.8168 365.35187s3.45352-11.65567 7.77044-12.08737c0 0-14.6775-9.49724-15.10919-12.51906s-5.612-10.79228-7.77045-8.20215-2.15849 43.60086 1.72679 47.91778 21.15291-6.06774 21.15291-6.06774-10.79239-4.72453-7.7705-9.04146z"
    fill="#2f2e41" transform="matrix(.59 0 0 .59 -50.0978 5.4157)" />
  <path d="m569.428 419.757 3.453 18.562-15.972 2.59v-21.152z" fill="#ffb8b8"
    transform="matrix(.59 0 0 .59 9.8649 70.3253)" />
  <g fill="#2f2e41">
    <path
      d="m672.22534 547.09407s2.59013-8.20214 4.31692-6.90705 4.31693 9.49724 3.88523 11.65567-3.45353 18.99443-2.15844 22.01625-6.47535 18.56273-16.40429 17.26769-9.06554-9.92894-9.06554-9.92894l3.45353-13.3824 1.29509-21.15292s11.22397-1.72679 14.6775.4317z"
      transform="matrix(.59 0 0 .59 -50.7817 4.7983)" />
    <path
      d="m0 11.86494c0-6.55283 5.31211-11.86494 11.86494-11.86494s11.86494 5.31211 11.86494 11.86494-5.31211 11.86494-11.86494 11.86494-11.86494-5.31211-11.86494-11.86494z"
      transform="matrix(.59 0 0 .59 328.4926 91.7626)" />
    <path
      d="m670.45981 150.79457c-.000346-6.07428317-4.58781848-11.16749116-10.629-11.80077.41062047-.0426517.82317034-.06406024 1.236-.06414 6.54856371.00601193 11.85403738 5.31635853 11.85403738 11.864925s-5.30547367 11.85891307-11.85403738 11.864925c-.41282862-.00011972-.82537643-.02152815-1.236-.06414 6.04118844-.63328884 10.62866014-5.72650889 10.629-11.8008z"
      transform="matrix(.59 0 0 .59 -50.7842 6.0239)" />
  </g>
  <path
    d="m0 18.13104c0-10.0135 8.11754-18.13104 18.13104-18.13104s18.13104 8.11754 18.13104 18.13104-8.11754 18.13104-18.13104 18.13104-18.13104-8.11754-18.13104-18.13104z"
    fill="#ffb8b8" transform="matrix(.59 0 0 .59 318.8933 113.4433)" />
  <path
    d="m680.42749 326.49963s-.8634 21.58456-4.31692 32.80859-15.90438 91.15833-13.31419 97.202 15.90437 72.88448 12.88254 76.76971-17.26768 2.59013-17.26768 2.59013l-19.3579-81.08663s3.817-89.4316-28.12819-91.59-84.1799-3.45352-84.1799-3.45352-33.67192 9.92888-48.78112 9.49724-23.743 3.88522-23.743 3.88522l-2.59013-17.69932 66.91221-14.6775s61.30019-21.15291 94.97217-15.5409 66.91211 1.29498 66.91211 1.29498z"
    fill="#2f2e41" transform="matrix(.59 0 0 .59 -50.4877 5.1897)" />
  <path
    d="m656.25275 219.00842s5.18031-3.02186 6.47535 0 10.36058 5.612 13.81416 3.02186 12.08737.86339 12.08737.86339l9.49724 28.06s-4.74862 24.17474-9.06554 37.55718-6.04371 41.0107-4.31692 43.60089-34.53532 12.95076-52.23471 6.47535-21.58461-13.81416-21.58461-13.81416 19.42612-27.62827 12.95077-40.579-1.29509-27.62826-1.29509-27.62826l-2.59014-14.67753 14.67751-8.20215s.86339-7.77045 4.31692-7.77045 17.26769-6.90712 17.26769-6.90712z"
    fill="#ff9200" transform="matrix(.59 0 0 .59 -50.7527 5.6397)" />
  <path
    d="m626.466 242.31977h-6.47536c-3.65167923 3.41711632-5.28344092 8.47556925-4.31692 13.38243 1.72679 8.20215 9.51437 35.39472 9.51437 35.39472l6.45823-16.832z"
    fill="#ff9200" transform="matrix(.59 0 0 .59 -50.6568 5.6811)" />
  <path d="m607.87142 311.64706s-12.91886 13.98918-3.42162 21.32793 11.83741-16.83594 11.83741-16.83594z" fill="#ffb8b8"
    transform="matrix(.59 0 0 .59 -50.6117 5.51)" />
  <path
    d="m626.466 282.4671-3.02183 12.08737-5.18032 9.49721s-17.69933 11.65568-17.69933 15.9726c0 0 7.77045-9.92891 17.69933 0l8.84967-21.36874z"
    fill="#ff9200" transform="matrix(.59 0 0 .59 -50.6256 5.5725)" />
  <path
    d="m0 11.86494c0-6.55283 8.85352-11.86494 19.77488-11.86494s19.77488 5.31211 19.77488 11.86494-8.85352 11.86494-19.77488 11.86494-19.77488-5.31211-19.77488-11.86494z"
    fill="#2f2e41" transform="matrix(.59 0 0 .59 315.9757 105.9126)" />
  <path d="m680.42749 182.31464s-13.81417-7.77045-19.42612-2.15846 16.836 14.24583 16.836 14.24583z" fill="#ffb8b8"
    transform="matrix(.59 0 0 .59 -50.7934 5.9166)" />
  <path
    d="m685.60775 225.05211 3.02183-2.15847s3.45352-5.18028 6.47535-3.45352 20.72122-6.47539 20.72122-6.47539-6.47536 3.02186-6.47536-2.15846-.8634-4.31692-5.18032-4.31692-4.31692 2.15846-6.04371-.86339-.8634-4.74862-3.88523-3.02186-6.47535.4317-7.33875-.8634-16.40429-3.45352-16.40429-3.45352 6.04372-17.69936 7.33875-18.99443 34.53538 13.3825 34.53538 13.3825 41.87407 11.65567 31.08179 25.03811-49.64452 33.672-49.64452 33.672z"
    fill="#ff9200" transform="matrix(.59 0 0 .59 -50.9033 5.833)" />
  <path
    d="m0 9.06039c0-5.00392 4.05647-9.06039 9.06039-9.06039s9.06039 4.05647 9.06039 9.06039-4.05647 9.06039-9.06039 9.06039-9.06039-4.05647-9.06039-9.06039z"
    fill="#6c63ff" transform="matrix(.52 0 0 .52 166.4888 341.5888)" />
  <path
    d="m0 9.06038c0-5.00391 4.05647-9.06038 9.06038-9.06038s9.06038 4.05647 9.06038 9.06038-4.05647 9.06038-9.06038 9.06038-9.06038-4.05647-9.06038-9.06038z"
    fill="#6c63ff" transform="matrix(.52 0 0 .52 260.7288 346.2988)" />
  <path
    d="m717.62587 744.25542v6.07c.00340524 1.66591307-.30524972 3.31772585-.91 4.87-.26856031.69186893-.59296371 1.36074192-.97 2-2.4245039 4.06972692-6.81281816 6.56213744-11.55 6.56h-446.55c-4.73717284.00210337-9.12547144-2.49029826-11.55-6.56-.37701221-.639271-.70141464-1.30814198-.97-2-.60473-1.55227994-.91338423-3.20408886-.91-4.87v-6.07c-.00096021-3.56090781 1.4126882-6.97635065 3.929957-9.49496597s5.93195519-3.93408999 9.492863-3.93503403h25.74717v-2.83c-.00024951-.14827891.05841762-.29058322.16309411-.39560479.1046765-.10502157.24678696-.16415671.39506589-.16439521h13.43183c.30877087-.00049746.55948679.24939915.56.55817v2.83185h8.39v-2.83c-.00024951-.14827891.05841762-.29058322.16309411-.39560479.1046765-.10502157.24678696-.16415671.39506589-.16439521h13.43183c.30877087-.00049746.55948679.24939915.56.55817v2.83185h8.4v-2.83c-.00024951-.14828064.05841899-.29058647.16309765-.39560832.10467866-.10502186.24679168-.16415583.39507235-.16439168h13.43182c.30877087-.00049746.55948679.24939915.56.55817v2.83185h8.39v-2.83c-.00024951-.14828064.05841899-.29058647.16309765-.39560832.10467866-.10502186.24679168-.16415583.39507235-.16439168h13.43182c.30877087-.00049746.55948679.24939915.56.55817v2.83185h8.39v-2.83c-.00024685-.14827983.0584225-.29058412.16310058-.3956054.10467809-.10502128.24678957-.1641561.39506942-.1643946h13.43182c.30877087-.00049746.55948679.24939915.56.55817v2.83185h8.4v-2.83c-.00024951-.14827891.05841762-.29058322.16309411-.39560479.1046765-.10502157.24678696-.16415671.39506589-.16439521h13.43183c.30877087-.00049746.55948679.24939915.56.55817v2.83185h8.39v-2.83c-.0002442-.14827903.05842601-.29058177.16310352-.39560247.10467751-.10502071.24678745-.16415638.39506648-.16439753h105.20189c.14827903-.0002442.29058177.05842601.39560247.16310352.10502071.10467751.16415638.24678745.16439753.39506648v2.83185h8.4v-2.83c-.0002442-.14827903.05842601-.29058177.16310352-.39560247.10467751-.10502071.24678745-.16415638.39506648-.16439753h13.43182c.30803597.00298164.55701836.25196403.56.56v2.83h8.39v-2.83c-.0002442-.14827903.05842601-.29058177.16310352-.39560247.10467751-.10502071.24678745-.16415638.39506648-.16439753h13.43182c.14827903-.0002442.29058177.05842601.39560247.16310352.10502071.10467751.16415638.24678745.16439753.39506648v2.83185h8.39v-2.83c-.0002442-.1482773.05842463-.29057853.16309998-.39559894.10467535-.10502042.24678272-.16415726.39506002-.16440106h13.43183c.14827903-.0002442.29058177.05842601.39560247.16310352.10502071.10467751.16415638.24678745.16439753.39506648v2.83185h8.4v-2.83c-.0002442-.1482773.05842463-.29057853.16309998-.39559894.10467535-.10502042.24678272-.16415726.39506002-.16440106h13.43183c.30605784.00384206.55167267.25392261.55.56v2.83h8.4v-2.83c-.0002442-.14827903.05842601-.29058177.16310352-.39560247.10467751-.10502071.24678745-.16415638.39506648-.16439753h13.43182c.14827903-.0002442.29058177.05842601.39560247.16310352.10502071.10467751.16415638.24678745.16439753.39506648v2.83185h8.39v-2.83c-.0002442-.14827903.05842601-.29058177.16310352-.39560247.10467751-.10502071.24678745-.16415638.39506648-.16439753h13.43182c.14827903-.0002442.29058177.05842601.39560247.16310352.10502071.10467751.16415638.24678745.16439753.39506648v2.83185h39.17c7.41517103-.00199402 13.42797891 6.00755898 13.43 13.42273z"
    fill="#3f3d56" transform="matrix(.52 0 0 .52 -44.9384 26.338)" />
  <path
    d="m681.66835 488.62124h-409.04355c-2.98596811-.00000265-5.84963964 1.1861667-7.96103887 3.29756406s-3.29757113 4.97506783-3.29757113 7.96103594v227.91147c-.00001105 6.21796441 5.04061559 11.25864029 11.25858 11.25869h409.04358c6.2179667-.00003314 11.25860552-5.0407033 11.2586-11.25867v-227.91149c0-6.21795308-5.04064692-11.2586-11.2586-11.2586z"
    fill="#3f3d56" transform="matrix(.52 0 0 .52 -44.938 26.3232)" />
  <path d="m0 25c0-13.80712 11.19288-25 25-25s25 11.19288 25 25-11.19288 25-25 25-25-11.19288-25-25z" fill="#ff9200"
    transform="matrix(.52 0 0 .52 190.35 308.78)" />
</svg>