<?xml version="1.0" encoding="UTF-8" standalone="no" ?>
<!DOCTYPE svg PUBLIC "-//W3C//DTD SVG 1.1//EN" "http://www.w3.org/Graphics/SVG/1.1/DTD/svg11.dtd">
<svg xmlns="http://www.w3.org/2000/svg" xmlns:xlink="http://www.w3.org/1999/xlink" version="1.1" width="218" height="400" viewBox="141 58 218 400" xml:space="preserve">
<desc>Created with Fabric.js 4.6.0</desc>
<defs>
</defs>
<g transform="matrix(0.75 0 0 0.75 351.49 406.4)" id="512OYXL20CbeRVEbMSdMy"  >
<path style="stroke: none; stroke-width: 1; stroke-dasharray: none; stroke-linecap: butt; stroke-dashoffset: 0; stroke-linejoin: miter; stroke-miterlimit: 4; fill: rgb(255,255,255); fill-rule: nonzero; opacity: 1;" vector-effect="non-scaling-stroke"  transform=" translate(-823.29, -668.13)" d="M 822.54456 676.01669 C 826.2978607744941 671.3621463605893 826.1264945604277 664.6738305527978 822.13976 660.2176000000001 C 821.74769 659.78237 821.05295 660.3711900000001 821.44554 660.80699 C 825.1670189218162 664.951311002182 825.3140849921425 671.1891219189857 821.79205 675.50422 C 821.42215 675.95851 822.17677 676.46839 822.54456 676.01669 Z" stroke-linecap="round" />
</g>
<g transform="matrix(0.75 0 0 0.75 332.35 403.1)" id="J-JIwnDTToyeKXYFPZFs4"  >
<path style="stroke: none; stroke-width: 1; stroke-dasharray: none; stroke-linecap: butt; stroke-dashoffset: 0; stroke-linejoin: miter; stroke-miterlimit: 4; fill: rgb(255,255,255); fill-rule: nonzero; opacity: 1;" vector-effect="non-scaling-stroke"  transform=" translate(-797.92, -663.77)" d="M 801.03741 662.11372 C 801.01741 662.1537199999999 800.9974100000001 662.18372 800.9774100000001 662.22377 C 799.8615187458008 664.274383588785 797.882079151976 665.7139760206577 795.5874100000001 666.1437699999999 C 795.3174100000001 665.8837699999999 795.0274100000001 665.6237699999999 794.7374100000001 665.3737699999999 C 794.7826823244354 665.3453270827083 794.8341263900768 665.3281790608279 794.88741 665.32377 C 797.0968749656417 665.0806466801807 799.0544017751968 663.7892744312918 800.14741 661.8537699999999 C 800.19741 661.7738199999999 800.2474100000001 661.68377 800.28741 661.6037699999999 C 800.3546141982514 661.503784643149 800.4590232039906 661.4348380251398 800.5773673859422 661.4122962761966 C 800.6957115678939 661.3897545272534 800.8181554612521 661.415491069244 800.91741 661.4837699999999 C 801.1168001969179 661.6295524330563 801.1692406339621 661.9048428773561 801.03741 662.11372 Z" stroke-linecap="round" />
</g>
<g transform="matrix(0.75 0 0 0.75 151.7 134.09)" id="CdxM30xCZZ48cq8z-3c61"  >
<path style="stroke: none; stroke-width: 1; stroke-dasharray: none; stroke-linecap: butt; stroke-dashoffset: 0; stroke-linejoin: miter; stroke-miterlimit: 4; fill: rgb(255,255,255); fill-rule: nonzero; opacity: 1;" vector-effect="non-scaling-stroke"  transform=" translate(-5.44, -5.44)" d="M 0 5.44315 C 0 2.43698 2.43698 0 5.44315 0 C 8.44932 0 10.8863 2.43698 10.8863 5.44315 C 10.8863 8.44932 8.44932 10.8863 5.44315 10.8863 C 2.43698 10.8863 0 8.44932 0 5.44315 z" stroke-linecap="round" />
</g>
<g transform="matrix(0.75 0 0 0.75 331.08 249.5)" id="aQiMWybRjnS1Vcm-LKB7u"  >
<path style="stroke: none; stroke-width: 1; stroke-dasharray: none; stroke-linecap: butt; stroke-dashoffset: 0; stroke-linejoin: miter; stroke-miterlimit: 4; fill: rgb(255,182,182); fill-rule: nonzero; opacity: 1;" vector-effect="non-scaling-stroke"  transform=" translate(-796.24, -460.22)" d="M 802.86062 481.92005 C 804.6307925414852 479.7885379758242 805.3659191798338 476.98242688913075 804.8681919850584 474.25678531779107 C 804.370464790283 471.53114374645133 802.691011672379 469.1659571089878 800.28174 467.79765 L 806.32037 435.07986 L 790.39932 441.82012 L 787.1058 471.85612 C 785.0297449659115 476.1501894299106 786.4935529968169 481.3183842876151 790.5130649637287 483.88598244957717 C 794.5325769306404 486.45358061153917 799.8372569060897 485.6089846154474 802.86062 481.92004 Z" stroke-linecap="round" />
</g>
<g transform="matrix(0.75 0 0 0.75 310.39 190.46)" id="I-v97JTOJbKRnPG46Uyk-"  >
<path style="stroke: none; stroke-width: 1; stroke-dasharray: none; stroke-linecap: butt; stroke-dashoffset: 0; stroke-linejoin: miter; stroke-miterlimit: 4; fill: rgb(63,61,86); fill-rule: nonzero; opacity: 1;" vector-effect="non-scaling-stroke"  transform=" translate(-768.83, -382)" d="M 812.57739 385.08375 L 807.5173900000001 368.07375 L 771.8373900000001 312.40375 C 769.8530184412097 310.0857290726519 767.481099694442 308.12999578359097 764.8273900000002 306.62375000000003 C 753.9605432139421 300.4124797797845 740.232027102573 302.6304641782033 731.8739744727532 311.9477166196346 C 723.5159218429332 321.264969061066 722.7966202964143 335.15288520053497 730.1473900000002 345.28375000000005 C 730.8821165304612 346.31107459541835 731.6944952947373 347.2805801165709 732.5773900000002 348.18375000000003 L 778.7873900000002 395.84375 L 781.4173900000002 398.56375 L 785.5773900000002 409.08375 L 787.2173900000001 457.05375000000004 L 788.6873900000002 457.40375000000006 L 801.6373900000002 460.45375000000007 L 803.4473900000002 460.8837500000001 L 806.4773900000001 445.21375000000006 L 808.3773900000001 437.72375000000005 C 809.9935588420682 431.33619999362 810.8098114657844 424.77258836093904 810.80739 418.1837500000001 C 810.80739 416.15375000000006 810.73739 414.11375000000004 810.57739 412.08375 Z" stroke-linecap="round" />
</g>
<g transform="matrix(0.75 0 0 0.75 299.5 424.4)" id="izQHUJK7U4kknJxv9IZQ7"  >
<path style="stroke: none; stroke-width: 1; stroke-dasharray: none; stroke-linecap: butt; stroke-dashoffset: 0; stroke-linejoin: miter; stroke-miterlimit: 4; fill: rgb(255,182,182); fill-rule: nonzero; opacity: 1;" vector-effect="non-scaling-stroke"  transform=" translate(-529.96, -521.05)" d="M 539.105 544.946 L 526.715 544.946 L 520.821 497.156 L 539.107 497.157 z" stroke-linecap="round" />
</g>
<g transform="matrix(0.75 0 0 0.75 293.7 443.34)" id="2NkjTAmwaNQ56_2SoP5-7"  >
<path style="stroke: none; stroke-width: 1; stroke-dasharray: none; stroke-linecap: butt; stroke-dashoffset: 0; stroke-linejoin: miter; stroke-miterlimit: 4; fill: rgb(47,46,65); fill-rule: nonzero; opacity: 1;" vector-effect="non-scaling-stroke"  transform=" translate(-746.71, -717.09)" d="M 763.19739 711.82374 L 749.97739 706.45374 L 749.58739 706.2937400000001 L 742.2873900000001 711.82374 C 733.9642498672879 711.8226236996486 727.1175039929426 718.3783938961401 726.7573900000001 726.69374 C 726.7373900000001 726.9137400000001 726.7373900000001 727.1437400000001 726.7373900000001 727.37374 L 726.7373900000001 727.88374 L 766.6873900000002 727.88374 L 766.6873900000002 711.82374 Z" stroke-linecap="round" />
</g>
<g transform="matrix(0.75 0 0 0.75 273.5 410.6)" id="iaqBTV4liCZWphV7HHJ_W"  >
<path style="stroke: none; stroke-width: 1; stroke-dasharray: none; stroke-linecap: butt; stroke-dashoffset: 0; stroke-linejoin: miter; stroke-miterlimit: 4; fill: rgb(255,182,182); fill-rule: nonzero; opacity: 1;" vector-effect="non-scaling-stroke"  transform=" translate(-495.51, -502.78)" d="M 515.51 520.231 L 504.831 526.514 L 475.514 488.31600000000003 L 491.274 479.043 z" stroke-linecap="round" />
</g>
<g transform="matrix(0.75 0 0 0.75 281.34 432.79)" id="Zj0FMNmuENky65cYUwL6n"  >
<path style="stroke: none; stroke-width: 1; stroke-dasharray: none; stroke-linecap: butt; stroke-dashoffset: 0; stroke-linejoin: miter; stroke-miterlimit: 4; fill: rgb(47,46,65); fill-rule: nonzero; opacity: 1;" vector-effect="non-scaling-stroke"  transform=" translate(-730.33, -703.11)" d="M 747.30737 697.45375 L 745.85742 694.98375 L 740.60742 686.06375 L 737.87742 687.67375 L 737.59742 687.83375 L 723.47742 689.91375 L 723.0573700000001 689.9738100000001 L 719.5773700000001 698.4438100000001 C 716.0216024386843 700.5345468222894 713.4422617945365 703.9524483427697 712.4070070546259 707.9453058450698 C 711.3717523147153 711.9381633473699 711.9654249439851 716.1787531378956 714.0573700000001 719.7338100000001 L 714.3173700000001 720.16381 L 748.74737 699.90381 Z" stroke-linecap="round" />
</g>
<g transform="matrix(0.75 0 0 0.75 271.75 325.23)" id="Hrkoh5RCpju36Uc-MgFmh"  >
<path style="stroke: none; stroke-width: 1; stroke-dasharray: none; stroke-linecap: butt; stroke-dashoffset: 0; stroke-linejoin: miter; stroke-miterlimit: 4; fill: rgb(47,46,65); fill-rule: nonzero; opacity: 1;" vector-effect="non-scaling-stroke"  transform=" translate(-717.63, -560.58)" d="M 779.21956 423.71246 C 785.02856 441.23228 784.41439 460.24956000000003 777.82329 480.66026 L 776.103 550.825 L 770.57742 595.0837300000001 C 773.9097599905924 603.7559537208881 775.6190833039872 612.9669973517853 775.62013 622.25742 C 775.59664 646.6093500000001 773.95928 681.2052 765.65765 697.45713 L 746.01211 697.45713 L 741.57739 625.0837300000001 L 736.28531 588.69554 L 735.6329 549.7024 L 735.0639 515.69409 L 713.70294 546.93 L 692.9459400000001 577.2827299999999 L 713.5773800000001 612.08373 L 731.5773800000001 668.08373 L 712.5773800000001 684.08373 L 691.0235100000001 643.2203 L 680.5773800000001 631.08373 L 652.0614 569.353 L 654.6241 560.75806 C 659.9016800731248 543.0577164187822 667.5664400819464 526.1590131464551 677.40688 510.52825000000007 L 677.40688 510.52825 L 705.77088 444.69781 Z" stroke-linecap="round" />
</g>
<g transform="matrix(0.75 0 0 0.75 289.72 179.31)" id="zh68VeISzoFwqnuaG3AcN"  >
<path style="stroke: none; stroke-width: 1; stroke-dasharray: none; stroke-linecap: butt; stroke-dashoffset: 0; stroke-linejoin: miter; stroke-miterlimit: 4; fill: rgb(63,61,86); fill-rule: nonzero; opacity: 1;" vector-effect="non-scaling-stroke"  transform=" translate(-741.43, -367.23)" d="M 781.73737 417.86372 L 778.49737 411.38372 L 778.78737 395.84371999999996 L 779.75737 343.30371999999994 C 779.9934806097818 329.5521815849363 774.5999565406302 316.3013803219434 764.8273700000001 306.62371999999993 C 761.9576846830074 303.76412173663 758.7468686693768 301.2686862783375 755.2673700000001 299.1937199999999 L 748.3073700000001 295.0337199999999 L 744.7873700000001 286.0937199999999 L 712.3273700000001 286.8837199999999 L 712.25737 295.55371999999994 L 712.2273700000001 298.60371999999995 L 700.5973700000001 317.14372 L 700.6073700000001 317.22371999999996 L 700.8473700000001 350.96371999999997 L 701.3273700000001 418.12371999999993 L 704.5373700000001 428.53371999999996 L 699.6873700000001 440.65371999999996 L 702.2673700000001 448.37372 L 704.3273700000001 448.04372 L 773.7073700000001 436.95372000000003 C 776.8608335979612 435.94198317626336 779.5377301643646 433.81610781542776 781.23737 430.97372 C 781.5793795963266 430.41805362847833 781.8769714259525 429.8362448829173 782.12737 429.23372 C 783.6585361088914 425.56762096881204 783.516142017441 421.41628553345095 781.73737 417.86372 Z" stroke-linecap="round" />
</g>
<g transform="matrix(0.75 0 0 0.75 280.81 95.43)" id="t6hh0ddUdZLkTqMr13rLT"  >
<path style="stroke: none; stroke-width: 1; stroke-dasharray: none; stroke-linecap: butt; stroke-dashoffset: 0; stroke-linejoin: miter; stroke-miterlimit: 4; fill: rgb(255,182,182); fill-rule: nonzero; opacity: 1;" vector-effect="non-scaling-stroke"  transform=" translate(-29.5, -29.5)" d="M 0 29.49581 C 0 13.20572 13.20572 0 29.49581 0 C 45.7859 0 58.99162 13.20572 58.99162 29.49581 C 58.99162 45.7859 45.7859 58.99162 29.49581 58.99162 C 13.20572 58.99162 0 45.7859 0 29.49581 z" stroke-linecap="round" />
</g>
<g transform="matrix(0.75 0 0 0.75 281.96 90.94)" id="M08yMFcXWw8trOUwPfZSY"  >
<path style="stroke: none; stroke-width: 1; stroke-dasharray: none; stroke-linecap: butt; stroke-dashoffset: 0; stroke-linejoin: miter; stroke-miterlimit: 4; fill: rgb(47,46,65); fill-rule: nonzero; opacity: 1;" vector-effect="non-scaling-stroke"  transform=" translate(-727.11, -239.52)" d="M 743.92951 269.91828 C 747.04489 267.72637 750.19951 263.55364 752.30083 260.42992 C 757.932934647339 252.12536324115175 759.77816830862 241.82156690487002 757.37807 232.07858 C 756.9941614603799 230.1510510761807 756.0915002773502 228.36483855942814 754.76737 226.91244999999998 C 753.3790267018767 225.45799636076123 751.2123240411831 225.06231988877127 749.39952 225.93219 C 750.2999986589807 223.41496631821502 750.1192748481307 220.63740363928216 748.9002 218.25808999999998 C 747.6758050097862 215.90793100705054 745.9207202493013 213.87534160867963 743.7741100000001 212.32148999999998 C 735.4072311820028 206.06102142596086 724.2788376841069 204.89934802440234 714.79939 209.29686999999998 C 712.96893 210.176 715.9036 203.54120999999998 713.98405 204.20362999999998 C 712.078829222434 204.9718943637607 709.9485800163994 204.96392597136017 708.04916 204.18142999999998 C 706.22289 203.29360999999997 700.2865 208.80083999999997 700.95573 206.88365999999996 C 698.1758694001986 208.19247747285652 696.2607752012016 210.83470968574335 695.8819933094239 213.88383290562874 C 695.5032114176464 216.9329561255141 696.7136019460394 219.9634563526425 699.08873 221.91265999999996 C 700.6286600000001 223.17643999999996 702.5393200000001 223.88997999999995 704.2210500000001 224.95782999999997 C 710.3229039648324 229.1256694168338 712.3532273050721 237.19268370078225 708.9513200000001 243.75244999999998 C 710.6892555268415 242.60153927021838 712.6016510851429 241.73884688313765 714.6146500000001 241.19769 C 716.6639440564749 240.6674543958457 718.8431566600435 241.15980800218014 720.4654400000001 242.51957 C 721.8209061639407 244.02821392341022 722.4939703449302 246.02920830671957 722.3258000000001 248.05034999999998 C 722.2874200000001 250.0527 721.8385300000001 252.03107999999997 721.8128 254.03363 C 721.7372300000001 259.90963 718.74593 271.1205 723.34325 274.17963 C 726.97132 276.59373 739.67588 272.911 743.92951 269.91828 Z" stroke-linecap="round" />
</g>
<g transform="matrix(0.75 0 0 0.75 169.79 143.37)" id="PbzEQAcT8BkIai8TynJ4N"  >
<path style="stroke: none; stroke-width: 1; stroke-dasharray: none; stroke-linecap: butt; stroke-dashoffset: 0; stroke-linejoin: miter; stroke-miterlimit: 4; fill: rgb(255,182,182); fill-rule: nonzero; opacity: 1;" vector-effect="non-scaling-stroke"  transform=" translate(-582.52, -319.59)" d="M 561.7215 317.221 C 563.134206900595 319.60451287005037 565.5301073904559 321.2398599025858 568.2645070952967 321.6869981841622 C 570.9989068001375 322.1341364657386 573.7909180196543 321.34713429024606 575.88926 319.53776 L 604.67526 336.21969 L 603.67705 318.95949 L 576.49444 305.76422 C 573.1477242242289 302.36586307572935 567.7881328733484 302.00780326016394 564.0191061004854 304.9307766527859 C 560.2500793276224 307.8537500454079 559.2629931395428 313.133815114823 561.7215 317.221 Z" stroke-linecap="round" />
</g>
<g transform="matrix(0.75 0 0 0.75 232.13 149.2)" id="Y-YXLBRGuyBp7LVU6N6kN"  >
<path style="stroke: none; stroke-width: 1; stroke-dasharray: none; stroke-linecap: butt; stroke-dashoffset: 0; stroke-linejoin: miter; stroke-miterlimit: 4; fill: rgb(63,61,86); fill-rule: nonzero; opacity: 1;" vector-effect="non-scaling-stroke"  transform=" translate(-665.11, -327.33)" d="M 747.61737 312.05372 C 745.3600798904291 304.99738999928036 740.2592519677002 299.2039088329318 733.5456189171803 296.07113322960663 C 726.8319858666603 292.93835762628146 719.1152707354971 292.75080201691674 712.25737 295.55372 C 711.93737 295.68372 711.61737 295.82372 711.29737 295.96372 L 647.43737 325.03372 L 622.57737 322.08372 L 590.39737 310.84372 L 589.57737 312.11372 L 582.34737 323.28372 L 581.33737 324.84372 L 615.85737 345.25372000000004 L 619.5173699999999 346.01372000000003 C 625.9542359521182 347.34548697269855 631.596211659339 351.18476508469126 635.1973699999999 356.68372000000005 L 648.5773699999999 361.08372 L 700.8473699999998 350.96372 L 730.1473699999998 345.28372 L 731.8073699999998 344.96372 C 742.0849478278898 341.00822507623747 748.868991867227 331.13618911038304 748.8773699999998 320.12372000000005 C 748.879016653148 317.38460833818664 748.4539192867809 314.66196092026314 747.61737 312.05372 Z" stroke-linecap="round" />
</g>
</svg>